{"title":"Happy.Feet.2006.720p.BRRip.[Hindi]","uid":6658913,"size":1456903730,"categoryP":"video","categoryS":"hd___movies","magnet":"?xt=urn:btih:1bd73d212cfab6c21537f7a2edea7741394ead83&amp;dn=Happy.Feet.2006.720p.BRRip.%5BHindi%5D&amp;tr=udp%3A%2F%2Ftracker.openbittorrent.com%3A80&amp;tr=udp%3A%2F%2Fopen.demonii.com%3A1337&amp;tr=udp%3A%2F%2Ftracker.coppersurfer.tk%3A6969&amp;tr=udp%3A%2F%2Fexodus.desync.com%3A6969","seeders":0,"leechers":1,"uploader":"arsalankhan1","files":-1,"time":1315433448,"description":"Into the world of the Emperor Penguins, who find their soul mates through song, a penguin is born who cannot sing. But he can tap dance something fierce!\n\n\n\nFormat                           : Matroska\nFile size                        : 1.35 GiB\nDuration                         : 1h 44mn\nOverall bit rate                 : 1 852 Kbps\nEncoded date                     : UTC 2010-09-25 06:04:55\nWriting application              : mkvmerge v4.2.0 (\\\\\\\\\\\\\\\\\\\\\\\\\\\\\\\\\\\\\\\\\\\\\\\\\\\\\\\\\\\\\\'No Talking\\\\\\\\\\\\\\\\\\\\\\\\\\\\\\\\\\\\\\\\\\\\\\\\\\\\\\\\\\\\\\') built on Jul 28 2010 18:38:23\nWriting library                  : libebml v1.0.0 + libmatroska v1.0.0\n\nVideo\nID                               : 1\nFormat                           : AVC\nFormat/Info                      : Advanced Video Codec\nFormat profile                   : &lt;a class=&quot;__cf_email__&quot; href=&quot;/cdn-cgi/l/email-protection&quot; data-cfemail=&quot;084569616648443c2639&quot;&gt;[email&amp;#160;protected]&lt;/a&gt;&lt;script data-cfhash='f9e31' type=&quot;text/javascript&quot;&gt;\n/* &lt;![CDATA[ */!function(){try{var t=&quot;currentScript&quot;in document?document.currentScript:function(){for(var t=document.getElementsByTagName(&quot;script&quot;),e=t.length;e--;)if(t[e].getAttribute(&quot;data-cfhash&quot;))return t[e]}();if(t&amp;&amp;t.previousSibling){var e,r,n,i,c=t.previousSibling,a=c.getAttribute(&quot;data-cfemail&quot;);if(a){for(e=&quot;&quot;,r=parseInt(a.substr(0,2),16),n=2;a.length-n;n+=2)i=parseInt(a.substr(n,2),16)^r,e+=String.fromCharCode(i);e=document.createTextNode(e),c.parentNode.replaceChild(e,c)}t.parentNode.removeChild(t);}}catch(u){}}()/* ]]&gt; */&lt;/script&gt;\nFormat settings, CABAC           : Yes\nFormat settings, ReFrames        : 3 frames\nMuxing mode                      : Header stripping\nCodec ID                         : V_MPEG4/ISO/AVC\nDuration                         : 1h 44mn\nBit rate                         : 1 591 Kbps\nWidth                            : 1 280 pixels\nHeight                           : 528 pixels\nDisplay aspect ratio             : 2.40:1\nFrame rate                       : 25.000 fps\nOriginal frame rate              : 23.976 fps\nColor space                      : YUV\nChroma subsampling               : 4:2:0\nBit depth                        : 8 bits\nScan type                        : Progressive\nBits/(Pixel*Frame)               : 0.094\nStream size                      : 1.18 GiB (88%)\n\n\nAudio\nID                               : 2\nFormat                           : MPEG Audio\nFormat version                   : Version 1\nFormat profile                   : Layer 3\nMode                             : Joint stereo\nMuxing mode                      : Header stripping\nCodec ID                         : A_MPEG/L3\nCodec ID/Hint                    : MP3\nDuration                         : 1h 44mn\nBit rate mode                    : Constant\nBit rate                         : 192 Kbps\nChannel(s)                       : 2 channels\nSampling rate                    : 44.1 KHz\nCompression mode                 : Lossy\nDelay relative to video          : 312ms\nStream size                      : 143 MiB (10%)\nWriting library                  : LAME\n\n\n\nSample is included.\n\nTotally HD 720p movie in Hindi :)\n\nSeeD PLEASE!!!!!!","torrent":{"xt":"urn:btih:1bd73d212cfab6c21537f7a2edea7741394ead83","amp;dn":"Happy.Feet.2006.720p.BRRip.%5BHindi%5D","amp;tr":["udp%3A%2F%2Ftracker.openbittorrent.com%3A80","udp%3A%2F%2Fopen.demonii.com%3A1337","udp%3A%2F%2Ftracker.coppersurfer.tk%3A6969","udp%3A%2F%2Fexodus.desync.com%3A6969"],"infoHash":"1bd73d212cfab6c21537f7a2edea7741394ead83","infoHashBuffer":{"type":"Buffer","data":[27,215,61,33,44,250,182,194,21,55,247,162,237,234,119,65,57,78,173,131]},"announce":[],"urlList":[]}}